<?xml version="1.0" encoding="utf-8"?>
<!-- Generator: Adobe Illustrator 21.0.0, SVG Export Plug-In . SVG Version: 6.00 Build 0)  -->
<svg version="1.1" id="Camada_1" xmlns="http://www.w3.org/2000/svg" xmlns:xlink="http://www.w3.org/1999/xlink" x="0px" y="0px"
	 viewBox="0 0 491.2 248.1" style="enable-background:new 0 0 491.2 248.1;" xml:space="preserve">
<style type="text/css">
	.st0{fill:#F7F5F5;}
</style>
<g>
	<path class="st0" d="M270.8,78.1c-1.4,5.6-3.1,11.1-4.2,16.8c-0.5,2.5-1.6,3.1-4,3.1c-10.4-0.1-20.8-0.1-31.2,0
		c-3,0-7.6,7.4-6.1,9.9c0.9,1.5,2.5,0.8,3.8,0.8c18.2,0,36.4,0.1,54.6-0.1c4.1,0,5.5,0.6,3.9,4.9c-1.5,4-2.3,8.2-3.2,12.4
		c-0.5,2.5-1.8,3.2-4.4,3.2c-27.1-0.1-54.1-0.1-81.2,0c-3.5,0-3.7-1.1-2.9-4c3.9-14.9,7.8-29.7,11.5-44.7c0.5-2,1-2.8,3.2-2.8
		c19.7,0.1,39.5,0.1,59.2,0.1C270,77.7,270.3,77.9,270.8,78.1z"/>
	<path class="st0" d="M338.3,128.9c-7.4-0.4-17.1,0.7-26.7-0.7c-9.9-1.5-13.4-6.2-11.1-15.9c2.5-10.7,5.4-21.3,8-31.9
		c0.5-2.2,1.5-2.9,3.8-2.8c6.4,0.2,12.8,0.2,19.3,0c2.8-0.1,3,1,2.4,3.2c-2.2,8.1-4,16.3-6.4,24.3c-1,3.5,0.1,3.8,3.1,3.8
		c10.1-0.1,20.2-0.2,30.3,0.1c3.5,0.1,5.1-1.1,5.4-4.3c0.3-3.5,1.5-5.5,4-6.1c1.1-0.3,14,0,19.1-0.1c2.3,0,3,0.5,2.3,2.9
		c-1,3.2-1.6,6.5-2.5,9.7c-3.6,12.7-10.7,17.5-26.7,17.9C355.2,129,347.8,128.9,338.3,128.9z"/>
	<path class="st0" d="M375.5,67.4c-19.8,0-39.2,0-58.6,0c-5.2,0-5.1,0-3.8-5c2.1-8.4,8.1-12.1,16-12.2c21.4-0.2,42.8-0.2,64.2,0
		c6.8,0,9.6,3.2,8.7,9.8c-0.8,5.2-2.4,10.4-3.6,15.5c-0.4,1.8-1.5,2-3,2c-6.6,0-13.2-0.1-19.7,0c-2.6,0.1-2.7-1-2-3
		C374.3,72.5,374.8,70.2,375.5,67.4z"/>
	<path class="st0" d="M153.9,67.4c-13.3,0-26.6-0.1-39.9,0.1c-3.9,0.1-4.3-1.2-3.4-4.5c4.1-15.9,2-12.7,16.2-12.9
		c23.5-0.2,47.1,0,70.6-0.1c4,0,5,1.1,4.2,4.9c-2.5,12.4-2.4,12.4-15.1,12.4C175.6,67.4,164.7,67.4,153.9,67.4z"/>
	<path class="st0" d="M255.3,67.5c-13.4,0-26.9-0.1-40.3,0.1c-3.3,0-4.2-0.7-3.4-4.1c3.1-13.2,3-13.3,16.4-13.3
		c23.8,0,47.7,0.1,71.5-0.1c3.4,0,3.9,1.2,3.3,3.9c-0.8,3.7-1.8,7.4-2.6,11.1c-0.5,2.4-2.1,2.5-4.1,2.5
		C282.5,67.4,268.9,67.5,255.3,67.5z"/>
	<path class="st0" d="M160.3,78.4c1.3,0.4,2.1,1.6,2.1,2.9c-0.1,2.3-1.1,5.7-1.9,8.7c-2.9,11.6-6,23.3-8.8,34.9
		c-0.7,2.9-1.7,4.3-5.1,4.1c-6.1-0.4-12.2-0.1-18.3-0.1c-2,0-3.4,0.2-2.6-2.9c4.1-15.3,7.8-30.6,11.6-46c0.5-1.9,1.3-2.7,3.4-2.6
		C143.5,77.7,155.4,77,160.3,78.4z"/>
	<path class="st0" d="M93.7,77.6c-4.1,16.4-8.2,32.1-12.1,47.9c-0.6,2.5-1.6,3.7-4.6,3.6c-6.4-0.3-12.8-0.2-19.3,0
		c-2.3,0-3.4-1.1-2.4-2.9c3.9-7.5,10.9-38.5,12.6-45.9c0.5-2.1,1.3-2.7,3.4-2.7C78.7,77.7,86,77.6,93.7,77.6z"/>
	<path class="st0" d="M146.3,40.7c-5.1,0.2-5-3.9-2.7-8.7c0.6-1.3,2.5-3.7-0.2-4.5c-1.8-0.5-5.1-1.8-5.8,2.2c-0.5,2.7-1.4,5.3-1.9,8
		c-0.5,2.1-1.3,3.3-3.9,3.3c-7.8,0-7.8,0.2-6-7.5c0.9-3.7,2-7.3,2.6-11.1c0.4-2.7,1.6-3.5,4.2-3.4c7,0.2,14.1,0.1,21.1,0.1
		c0.9,0,1.8,0,2.8,0c2.1-0.1,2.3-1.8,2.4-3.3c0.1-2.1-1.7-1.3-2.7-1.3c-8.4-0.1-16.8,0-25.6,0c1.9-8.3,1.9-8.3,9.8-8.3
		c7,0,14.1-0.1,21.1,0c7.4,0.1,9.6,3.3,8.2,10.6c-1.3,6.8-4.4,10.9-11.8,10.6c-2.7-0.1-2.7,2.2-2.8,3.9c-0.1,2.3,1.9,1.2,3.1,1.4
		c0.7,0.1,7.3-1.9,7,1.9c-0.2,2.8,0.2,7.2-5.3,6.4"/>
	<path class="st0" d="M266.5,13.9c0.7-4,2.9-6.6,7-7.2c9.1-1.3,18.3-0.9,27.4-0.3c5,0.3,6.1,2.4,4.9,7.5c-1.4,6.1-2.8,12.2-4.3,18.2
		c-1.6,6.3-3.6,8.3-10,8.6c-7.9,0.3-15.9,0.3-23.8,0c-5.7-0.2-7.1-2.4-5.9-8.1c0.4-2.1,1.1-4.1,1.6-6.2c1.9-7.5,1.9-7.3,9.7-7.4
		c8.5,0.5-1.2,10.9,0.5,12.9c1.2,1.3,4.8,0.8,7.4,0.8c9.8,0,9.8,0,12-9.7c2-8.5,2-8.5-6.8-8.6c-6.3,0-12.5,0-18.8-0.1
		C267.1,14.2,266.8,14,266.5,13.9z"/>
	<path class="st0" d="M451.1,130.7c-3.9-0.7-92,51.3-93.4,52.1c-7.6,4.3-25.7,14.6-27.3,13.9c-11.8-5-24.3-6.7-36.7-8.6
		c-6.9-1.1-13.8-2.1-20.8-1.8c2.4,0.7,4.8,0.9,7.1,1.6c20.2,6.4,38.8,15.9,56.5,27.4c3,1.9,5.3,2.5,8.5,0.6
		c18.4-11.1,81.1-46.2,91.1-52.8c15.5-8.2,30.6-16.9,46.6-26.8C472.6,134.6,460,132.3,451.1,130.7z"/>
	<path class="st0" d="M221.5,14.3c-0.1-0.5-0.1-0.7-0.1-0.8C223,6,223,6,230.5,6c7.2,0,14.4,0,21.5,0c9,0.1,10.3,1.8,8.1,10.4
		c-0.3,1.3-0.8,2.6-1,4c-0.9,4.7-4.1,6.6-8.5,6.7c-6.1,0.2-12.2,0.3-18.3,0.1c-2.7-0.1-3.9,0.8-4.4,3.3c-0.5,2.5-1.5,5-1.8,7.5
		c-0.3,2.4-1.5,2.8-3.7,2.9c-5.7,0.1-7.6,0.2-7.4-2.8c0.1-1.1,2-16,5.8-18.5c1.2-0.8,2.6-1.1,4.2-1.2c3.2-0.2,22.5,0.5,23.3,0
		c0.8-0.5,1.2-1.4,1.2-2.7c-0.8-2.2-2.5-1.4-3.8-1.4C237.6,14.2,229.5,14.3,221.5,14.3z"/>
	<path class="st0" d="M217.6,6.3c-2.1,8.7-4.2,17.1-6.3,25.5c-1.6,6.6-3.7,8.7-10.2,8.9c-7.8,0.3-15.6,0.3-23.4,0
		c-5-0.2-8.3-2.2-6.2-8.2c1.1-3.3,1.8-6.7,2.5-10.2c0.4-2.3,1.3-3.3,3.9-3.3c8-0.1,8-0.2,6,7.4c-1.6,6.2-1.6,6.2,4.9,6.2
		c11.6,0,11.6,0,14.3-11.4c0.5-1.9,1-3.8,1.5-5.7C206.9,5.6,206.9,5.6,217.6,6.3z"/>
	<path class="st0" d="M94.6,19.3c-0.9,3.5-1.8,7-2.7,10.5c-0.5,1.9,0,2.8,2.2,2.8c4.3-0.1,8.6-0.2,12.8,0c2.7,0.1,3-1.8,3.2-3.5
		c0.3-2.7-1.9-1.7-3.2-1.8c-2.6-0.1-5.2,0-7.7,0c0.3-7.3,1.3-8.3,7.9-8.3c3.7,0,7.3-0.3,10.9,0.7c2.5,0.7,4.3,2.1,3.9,4.8
		c-0.7,3.9-1.5,7.8-2.9,11.5c-1.5,3.7-5.2,4.6-8.8,4.8c-7.8,0.2-15.6,0.3-23.4,0c-6.2-0.2-7.6-2.5-6.2-8.6c0.3-1.3,0.7-2.7,1-4
		C84,18.2,84,18.2,94.6,19.3z"/>
	<path class="st0" d="M84.8,67.6c-3.7,0-6.8-0.2-9.9,0.1c-3.2,0.3-3.7-1.1-3-3.7c0.2-0.6,0.2-1.2,0.4-1.8c2.3-11.7,2.7-12,14.3-12
		c3.8,0,7.6,0.1,11.5-0.1c2.9-0.2,3,1.4,2.5,3.4c-0.2,0.8-1.8,11.2-4.6,13.4C93.1,69.3,88.2,67.3,84.8,67.6z"/>
	<path class="st0" d="M105.2,14.3c-5.6,0-11.3-0.2-16.9,0.1c-3.6,0.1-3.4-1.2-2.1-3.7c1.7-3.3,4.9-4.3,8-4.4
		c8.2-0.3,16.4-0.2,24.7-0.1c1.3,0,2.7,0.5,3.9,1.1c2.4,1.1,2.4,3.3,2,5.5c-0.4,2.4-2.3,1.5-3.7,1.5
		C115.9,14.4,110.5,14.3,105.2,14.3z"/>
	<path class="st0" d="M186.6,6.4c1.6,0.2,2.8,1.7,2.6,3.3c-0.2,1.9-0.5,3.6-1.8,4.1c-2.9,1.1-6.5,0.4-9.9,0.5c-0.6,0-1-0.2-1.2-1
		c-0.7-3.3,2.2-7.3,5.6-7.3C183.1,6,185,6.2,186.6,6.4z"/>
	<g>
		<path class="st0" d="M445.5,111.2c-28.9,6.2-57,14.8-84.7,25.1c0.1,0.1,0.2,0.1,0.3,0.2c-0.1-0.1-0.2-0.1-0.3-0.2
			c-3.2,0.8-21,7.4-26.7,9.9c-6.3,2.4-12.7,4.7-19,7.1c-1.1,0.4-43.3,18.4-49.6,22.3c-5,1.9-9.4,4.9-13.5,8.2
			c7.8-0.4,15.3-1.2,22.9-1.3c13.1-0.2,26.1,1.4,39.1,2.9c3.7,0.8,11.8,1.9,15.3,3c4.1,1.3,122.7-69.4,139.9-80.2
			C461.1,107.3,453.3,109.5,445.5,111.2z"/>
		<path class="st0" d="M469.2,108.1c0,0,0.1,0,0.1,0l0.1-0.1C469.3,108,469.3,108,469.2,108.1z"/>
	</g>
	<path class="st0" d="M491.2,165.4c-5.4-3.1-11-6.2-16.5-9.4c-1.7-1-3-0.7-4.6,0.2c-4.2,2.4-122.5,64.3-127.9,67
		c-2,1-3.3,1.6-5.3-0.7c-3-3.3-53.2-30.7-64.3-32.9c9,3.1,16.6,8.7,24.9,13c3.6,2.5,28.8,21.9,32.7,25.5c0,0,12.9,14.3,16.3,18.6
		c1.1,1.4,2.1,2,3.8,0.9c8.3-5.2,127-72.9,139.3-80.1C490.3,167,491.4,166.8,491.2,165.4z"/>
	<path class="st0" d="M115.3,139.3c28.8,3.3,57.2,7.9,84.7,17.1c2.2,0.8,4.3,1.5,6.5,2.3c1.2,1,34.5,21.4,38.8,18.8
		c0.9-0.5,35.2-14.7,38.5-16.3l0,0c1.9-0.8,3.7-1.6,5.6-2.4c2.2-0.9,4.3-1.7,6.5-2.6c12.9-5.7,26.4-10.1,39.9-16.8
		C261.5,139.3,188.4,139.3,115.3,139.3z"/>
	<path class="st0" d="M225.1,183.4c-2.8,0.5-5.4,0.6-8.2,0.7c-20.2,0-39.9-0.7-59.8-1.9c-7.4-0.4-14.8-1.4-22.2-2.3
		c-11.5-1.3-22.8-3.5-34.1-5.8c-15.8-3.3-63.2-17.6-80.4-50c-7-13.1-7.3-28.8-1.3-42.4c0.9-2.1,1.9-4.2,2.7-6.4
		c-0.1,0,4.4-6.9,6.8-10.3c-0.3-0.2-8.2,6.6-10.3,11c0.1,0-15.9,28-9.7,44.2c23.1,54.2,98.7,62.2,126.5,64.7
		c19.7,1.8,39.5,2.2,59.3,2.8c11.6,0.3,22.7,0,34.7-0.9c1.1,0,2.4,0.4,3.5-0.6C230.8,183.2,228,182.7,225.1,183.4z"/>
	<path class="st0" d="M219.2,175.8c-77-1.6-140-17.4-173.1-48.9c-14.7-14-19-35.6-10.6-54.1c2.8-6.2,5.7-10.7,5.9-12.5
		c-3.1,3.3-12.8,13.8-17.4,37.5c-0.2,4-1.6,8-0.1,11.9c0,0,0.1,0,0.1,0C31.9,142.3,94,170,117.8,173c34.4,6.9,69.3,8,104.3,7.2
		c1.1,0,2.4,0.7,3.4-0.7C223.8,177.7,222.3,175.8,219.2,175.8z"/>
	<path class="st0" d="M469.3,108.1l-0.1-0.2c0,0,0.2,0.1,0.2,0.1C469.4,108,469.3,108.1,469.3,108.1z"/>
	<path class="st0" d="M419.3,224"/>
</g>
<path class="st0" d="M67.8,80.9"/>
<path class="st0" d="M55.8,125.3"/>
</svg>
